<mxfile host="Electron" modified="2024-04-24T20:07:30.238Z" agent="Mozilla/5.0 (Windows NT 10.0; Win64; x64) AppleWebKit/537.36 (KHTML, like Gecko) draw.io/23.1.5 Chrome/120.0.6099.109 Electron/28.1.0 Safari/537.36" etag="8kLJ3n0VPJv8mvjrU8JK" version="23.1.5" type="device">
  <diagram name="Page-1" id="13e1069c-82ec-6db2-03f1-153e76fe0fe0">
    <mxGraphModel dx="1178" dy="790" grid="1" gridSize="10" guides="1" tooltips="1" connect="1" arrows="1" fold="1" page="1" pageScale="1" pageWidth="1100" pageHeight="850" background="none" math="0" shadow="0">
      <root>
        <mxCell id="0" />
        <mxCell id="1" parent="0" />
        <mxCell id="0uyyKzdzyCZ4jg-xGAao-1" value="Основное окно" style="shape=umlLifeline;perimeter=lifelinePerimeter;whiteSpace=wrap;html=1;container=1;collapsible=0;recursiveResize=0;outlineConnect=0;rounded=1;shadow=0;comic=0;labelBackgroundColor=none;strokeWidth=1;fontFamily=Verdana;fontSize=12;align=center;" vertex="1" parent="1">
          <mxGeometry x="380" y="120" width="140" height="280" as="geometry" />
        </mxCell>
        <mxCell id="0uyyKzdzyCZ4jg-xGAao-2" value="" style="html=1;points=[];perimeter=orthogonalPerimeter;rounded=0;shadow=0;comic=0;labelBackgroundColor=none;strokeWidth=1;fontFamily=Verdana;fontSize=12;align=center;" vertex="1" parent="0uyyKzdzyCZ4jg-xGAao-1">
          <mxGeometry x="65" y="100" width="10" height="170" as="geometry" />
        </mxCell>
        <mxCell id="0uyyKzdzyCZ4jg-xGAao-3" value="Основное окно" style="shape=umlLifeline;perimeter=lifelinePerimeter;whiteSpace=wrap;html=1;container=1;collapsible=0;recursiveResize=0;outlineConnect=0;rounded=1;shadow=0;comic=0;labelBackgroundColor=none;strokeWidth=1;fontFamily=Verdana;fontSize=12;align=center;" vertex="1" parent="1">
          <mxGeometry x="590" y="120" width="130" height="280" as="geometry" />
        </mxCell>
        <mxCell id="0uyyKzdzyCZ4jg-xGAao-4" value="" style="html=1;points=[];perimeter=orthogonalPerimeter;rounded=0;shadow=0;comic=0;labelBackgroundColor=none;strokeWidth=1;fontFamily=Verdana;fontSize=12;align=center;" vertex="1" parent="0uyyKzdzyCZ4jg-xGAao-3">
          <mxGeometry x="60" y="120" width="10" height="140" as="geometry" />
        </mxCell>
        <mxCell id="0uyyKzdzyCZ4jg-xGAao-11" value="&lt;div&gt;Печать документа&lt;/div&gt;" style="html=1;verticalAlign=bottom;endArrow=block;labelBackgroundColor=none;fontFamily=Verdana;fontSize=12;elbow=vertical;edgeStyle=orthogonalEdgeStyle;curved=1;exitX=1;exitY=0.429;exitDx=0;exitDy=0;exitPerimeter=0;" edge="1" parent="0uyyKzdzyCZ4jg-xGAao-3" target="0uyyKzdzyCZ4jg-xGAao-3" source="0uyyKzdzyCZ4jg-xGAao-4">
          <mxGeometry x="-0.4055" y="20" relative="1" as="geometry">
            <mxPoint x="80" y="180" as="sourcePoint" />
            <mxPoint x="410" y="240" as="targetPoint" />
            <Array as="points">
              <mxPoint x="150" y="180" />
              <mxPoint x="150" y="220" />
            </Array>
            <mxPoint as="offset" />
          </mxGeometry>
        </mxCell>
        <mxCell id="0uyyKzdzyCZ4jg-xGAao-5" value="Основное окно " style="shape=umlLifeline;perimeter=lifelinePerimeter;whiteSpace=wrap;html=1;container=1;collapsible=0;recursiveResize=0;outlineConnect=0;rounded=1;shadow=0;comic=0;labelBackgroundColor=none;strokeWidth=1;fontFamily=Verdana;fontSize=12;align=center;" vertex="1" parent="1">
          <mxGeometry x="130" y="120" width="110" height="280" as="geometry" />
        </mxCell>
        <mxCell id="0uyyKzdzyCZ4jg-xGAao-6" value="" style="html=1;points=[];perimeter=orthogonalPerimeter;rounded=0;shadow=0;comic=0;labelBackgroundColor=none;strokeWidth=1;fontFamily=Verdana;fontSize=12;align=center;" vertex="1" parent="0uyyKzdzyCZ4jg-xGAao-5">
          <mxGeometry x="50" y="100" width="10" height="180" as="geometry" />
        </mxCell>
        <mxCell id="0uyyKzdzyCZ4jg-xGAao-7" value="Ввести номер документа&amp;nbsp;&lt;br&gt;или его часть" style="html=1;verticalAlign=bottom;endArrow=block;labelBackgroundColor=none;fontFamily=Verdana;fontSize=12;edgeStyle=elbowEdgeStyle;elbow=vertical;" edge="1" parent="1" target="0uyyKzdzyCZ4jg-xGAao-1">
          <mxGeometry x="0.0019" y="20" relative="1" as="geometry">
            <mxPoint x="190" y="230" as="sourcePoint" />
            <mxPoint x="325" y="230" as="targetPoint" />
            <Array as="points">
              <mxPoint x="260" y="230" />
            </Array>
            <mxPoint as="offset" />
          </mxGeometry>
        </mxCell>
        <mxCell id="0uyyKzdzyCZ4jg-xGAao-8" value="Возврат" style="html=1;verticalAlign=bottom;endArrow=open;dashed=1;endSize=8;labelBackgroundColor=none;fontFamily=Verdana;fontSize=12;" edge="1" parent="1" source="0uyyKzdzyCZ4jg-xGAao-1">
          <mxGeometry x="-0.1966" y="-3" relative="1" as="geometry">
            <mxPoint x="190" y="389.9999999999999" as="targetPoint" />
            <mxPoint x="410" y="390" as="sourcePoint" />
            <Array as="points" />
            <mxPoint x="1" as="offset" />
          </mxGeometry>
        </mxCell>
        <mxCell id="0uyyKzdzyCZ4jg-xGAao-9" value="Возврат" style="html=1;verticalAlign=bottom;endArrow=open;dashed=1;endSize=8;labelBackgroundColor=none;fontFamily=Verdana;fontSize=12;" edge="1" parent="1" source="0uyyKzdzyCZ4jg-xGAao-3">
          <mxGeometry x="-0.1966" y="-3" relative="1" as="geometry">
            <mxPoint x="460" y="360" as="targetPoint" />
            <mxPoint x="630" y="360" as="sourcePoint" />
            <Array as="points" />
            <mxPoint x="1" as="offset" />
          </mxGeometry>
        </mxCell>
        <mxCell id="0uyyKzdzyCZ4jg-xGAao-10" value="Выбрать файл из набора&lt;br&gt;для просмотра и печати" style="html=1;verticalAlign=bottom;endArrow=block;labelBackgroundColor=none;fontFamily=Verdana;fontSize=12;edgeStyle=elbowEdgeStyle;elbow=vertical;" edge="1" parent="1" target="0uyyKzdzyCZ4jg-xGAao-3">
          <mxGeometry relative="1" as="geometry">
            <mxPoint x="460" y="260" as="sourcePoint" />
            <Array as="points" />
            <mxPoint x="625" y="259.5" as="targetPoint" />
          </mxGeometry>
        </mxCell>
      </root>
    </mxGraphModel>
  </diagram>
</mxfile>
